/* XPM */
static char *logo_LHCb[] = {
/* width height ncolors chars_per_pixel */
"81 55 195 2",
/* colors */
"AA c #E7E76B6B6B6B",
"BA c #E7E729292929",
"CA c #D6D6EFEFDEDE",
"DA c #CECEEFEFDEDE",
"EA c #C6C6F7F7DEDE",
"FA c #DEDEEFEFE7E7",
"GA c #D6D6F7F7E7E7",
"HA c #C6C6EFEFDEDE",
"IA c #D6D6EFEFE7E7",
"JA c #C6C6F7F7E7E7",
"KA c #D6D6F7F7EFEF",
"LA c #CECEEFEFE7E7",
"MA c #C6C6EFEFE7E7",
"NA c #D6D6E7E7E7E7",
"OA c #DEDEEFEFEFEF",
"PA c #D6D6EFEFEFEF",
"AB c #CECEE7E7E7E7",
"BB c #CECEEFEFEFEF",
"CB c #C6C6E7E7E7E7",
"DB c #C6C6EFEFEFEF",
"EB c #CECEEFEFF7F7",
"FB c #C6C6E7E7EFEF",
"GB c #D6D6EFEFF7F7",
"HB c #CECEE7E7EFEF",
"IB c #BDBDD6D6DEDE",
"JB c #C6C6DEDEE7E7",
"KB c #A5A5BDBDC6C6",
"LB c #D6D6E7E7EFEF",
"MB c #BDBDDEDEEFEF",
"NB c #CECEDEDEE7E7",
"OB c #ADADC6C6D6D6",
"PB c #C6C6DEDEEFEF",
"AC c #D6D6E7E7F7F7",
"BC c #BDBDCECEDEDE",
"CC c #C6C6D6D6E7E7",
"DC c #B5B5C6C6DEDE",
"EC c #BDBDCECEE7E7",
"FC c #CECEDEDEF7F7",
"GC c #DEDEE7E7F7F7",
"HC c #C6C6CECEDEDE",
"IC c #BDBDCECEEFEF",
"JC c #ADADBDBDDEDE",
"KC c #A5A5B5B5D6D6",
"LC c #CECED6D6E7E7",
"MC c #A5A5B5B5DEDE",
"NC c #BDBDC6C6DEDE",
"OC c #CECED6D6EFEF",
"PC c #C6C6CECEE7E7",
"AD c #B5B5BDBDD6D6",
"BD c #BDBDC6C6E7E7",
"CD c #D6D6DEDEFFFF",
"DD c #CECED6D6F7F7",
"ED c #B5B5BDBDDEDE",
"FD c #ADADB5B5D6D6",
"GD c #BDBDC6C6EFEF",
"HD c #9C9CA5A5CECE",
"ID c #B5B5BDBDE7E7",
"JD c #A5A5ADADD6D6",
"KD c #A5A5ADADDEDE",
"LD c #9C9CA5A5D6D6",
"MD c #84848C8CBDBD",
"ND c #84848C8CC6C6",
"OD c #BDBDBDBDDEDE",
"PD c #B5B5B5B5DEDE",
"AE c #ADADADADD6D6",
"BE c #A5A5A5A5CECE",
"CE c #94949494BDBD",
"DE c #ADADADADDEDE",
"EE c #A5A5A5A5D6D6",
"FE c #9C9C9C9CCECE",
"GE c #A5A5A5A5DEDE",
"HE c #94949494CECE",
"IE c #8C8C8C8CC6C6",
"JE c #84848484BDBD",
"KE c #8C8C8C8CCECE",
"LE c #7B7B7B7BBDBD",
"ME c #7B7B7B7BC6C6",
"NE c #6B6B6B6BB5B5",
"OE c #7B7B7373C6C6",
"PE c #73736B6BBDBD",
"AF c #7B7B7373CECE",
"BF c #6B6B6363B5B5",
"CF c #73736B6BC6C6",
"DF c #5A5A5252A5A5",
"EF c #4A4A42429C9C",
"FF c #4A4A4242A5A5",
"GF c #292921218484",
"HF c #9C9C9494D6D6",
"IF c #94948C8CCECE",
"JF c #8C8C8484C6C6",
"KF c #7B7B7373B5B5",
"LF c #84847B7BC6C6",
"MF c #7B7B7373BDBD",
"NF c #63635A5AADAD",
"OF c #ADADA5A5DEDE",
"PF c #9C9C9494CECE",
"AG c #8C8C8484BDBD",
"BG c #84847B7BBDBD",
"CG c #313121219494",
"DG c #292918188C8C",
"EG c #BDBDB5B5E7E7",
"FG c #A5A59C9CD6D6",
"GG c #73736363C6C6",
"HG c #6B6B5A5ABDBD",
"IG c #63635252B5B5",
"JG c #5A5A4A4AADAD",
"KG c #52524242A5A5",
"LG c #4A4A39399C9C",
"MG c #393929299494",
"NG c #313121218C8C",
"OG c #73736363B5B5",
"PG c #7B7B6B6BC6C6",
"AH c #6B6B5A5AB5B5",
"BH c #63635252ADAD",
"CH c #525242429494",
"DH c #525242429C9C",
"EH c #393921219C9C",
"FH c #313118189C9C",
"GH c #84847373C6C6",
"HH c #6B6B5A5AADAD",
"IH c #63634A4ABDBD",
"JH c #52523939ADAD",
"KH c #4A4A3131A5A5",
"LH c #424229299C9C",
"MH c #393921219494",
"NH c #313118188C8C",
"OH c #313118189494",
"PH c #84847373BDBD",
"AI c #6B6B5252BDBD",
"BI c #63634A4AB5B5",
"CI c #52523939A5A5",
"DI c #4A4A31319C9C",
"EI c #393921218C8C",
"FI c #39391818A5A5",
"GI c #313110109C9C",
"HI c #63634A4AADAD",
"II c #525239399C9C",
"JI c #42422121A5A5",
"KI c #393918189C9C",
"LI c #313110109494",
"MI c #7B7B6363BDBD",
"NI c #63634A4AA5A5",
"OI c #63634242B5B5",
"PI c #5A5A3939ADAD",
"AJ c #5A5A3939B5B5",
"BJ c #4A4A29299C9C",
"CJ c #4A4A2929A5A5",
"DJ c #424221219494",
"EJ c #424221219C9C",
"FJ c #393918188C8C",
"GJ c #393918189494",
"HJ c #42421818ADAD",
"IJ c #313110108C8C",
"JJ c #39391010A5A5",
"KJ c #A5A58C8CDEDE",
"LJ c #52522929ADAD",
"MJ c #42421818A5A5",
"NJ c #393910109494",
"OJ c #393910109C9C",
"PJ c #52522929A5A5",
"AK c #4A4A21219C9C",
"BK c #424218189C9C",
"CK c #393910108C8C",
"DK c #42421010A5A5",
"EK c #42421010ADAD",
"FK c #8C8C7373BDBD",
"GK c #424218189494",
"HK c #4A4A1818A5A5",
"IK c #424210109C9C",
"JK c #63633939ADAD",
"KK c #424218188C8C",
"LK c #4A4A18189C9C",
"MK c #424210109494",
"NK c #4A4A18189494",
"OK c #424210108C8C",
"PK c #4A4A10109C9C",
"AL c #424210108484",
"BL c #4A4A10109494",
"CL c #4A4A10108C8C",
"DL c #CECE9C9CBDBD",
"EL c #DEDE9C9CADAD",
"FL c #DEDEADADB5B5",
"GL c #EFEF00002121",
"HL c #F7F700002121",
"IL c #EFEF00001818",
"JL c #F7F700001818",
"KL c #FFFF00001818",
"LL c #D6D66B6B7373",
"ML c #E7E710102121",
"NL c #E7E700001010",
"OL c #EFEF00001010",
"PL c #EFEF29293131",
"AM c #EFEF00000808",
"BM c #F7F700000808",
"CM c #FFFF00000808",
/* pixels */
"OANABBBBBBBBBBBBBBBBBBBBBBBBBBBBBBBBBBBBBBBBBBBBBBBBBBBBBBBBBBBBBBBBBBBBBBBBBBBBBBBBBBBBBBBBBBBBBBBBBBBBBBBBBBBBBBBBBBBBBBBBBBBBBBBBBBBBBBBBBBBBBBBBBBBBBBBBBBBBBB",
"LAPABBBBBBBBLABBLABBLABBBBBBBBLABBLABBLABBBBBBBBLABBLABBLABBBBBBBBLABBLABBLABBBBBBBBLABBLABBLABBBBBBBBLABBLABBLABBBBBBBBLABBLABBABPABBPABBLABBLABBLABBBBBBBBLABBLA",
"BBPAHBLAHBLABBLABBHBBBHBLAHBLABBLABBHBBBHBLAHBLABBLABBHBBBHBLAHBLABBLABBHBBBHBLAHBLABBLABBHBBBHBLAHBLABBLABBHBBBHBLAHBLABBLABBHBBBABLAABPABBBBBBABBBABBBABBBBBBBBB",
"LABBBBHBBBHBBBHBBBBBBBBBHBBBHBBBHBBBBBBBBBHBBBHBBBHBBBBBBBBBHBBBHBBBHBBBBBBBBBHBBBHBBBHBBBBBBBBBHBBBHBBBHBBBBBBBBBHBBBHBBBHBBBLABBHBBBBBABBBABBBBBBBBBABBBABBBABBB",
"LALBABHBLABBBBHBHBABBBLABBABHBHBBBBBLAHBABHBLABBBBHBHBABBBLABBABHBHBBBBBLAHBABHBLABBBBHBHBABBBLABBABHBHBBBBBLAHBABHBLABBBBABABHBIAHBHBBBPABBHBHBABBBLABBABHBHBBBLA",
"LAPAABHBBBBBBBHBHBBBBBBBBBBBHBHBBBBBBBHBBBHBBBBBBBHBHBBBBBBBBBBBHBHBBBBBBBHBBBHBBBBBBBHBHBBBBBBBBBBBHBHBBBBBBBHBBBHBBBBBLABBABHBBBHBFCHBBBBBABABBBLABBBBBBHBABBBBB",
"LAPAHBHBBBBBLABBLAHBLABBBBHBBBLABBLABBLAHBBBBBBBLABBLAHBLABBBBHBBBLABBLABBLAHBBBBBBBLABBLAHBLABBBBHBBBLABBLABBLAHBBBBBDAIFGJNJFJGJIKFCBBABBBHBBBHBBBBBBBHBBBBBBBBB",
"BBLBBBBBHBHBBBHBBBBBBBHBHBBBHBBBHBBBHBBBBBHBHBHBBBHBBBBBBBHBHBBBHBBBHBBBHBBBBBHBHBHBBBHBBBBBBBHBHBBBHBBBHBBBHBBBBBBBHBABDAGBADIKGJIKPABBLAHBBBBBBBLAHBHBBBHBBBHBBB",
"BBBBHBBBHBBBABHBLABBABBBBBBBHBLABBABBBLABBHBBBBBABHBLABBABBBBBBBHBLABBABBBLABBHBBBBBABHBLABBABBBBBBBHBLABBABBBLABBBBHBBBLBABLBKIIKDILBMALABBHBBBLAHBBBBBBBHBBBLAHB",
"BBPABBBBBBHBBBABBBBBBBBBABBBABBBABBBBBBBBBABBBABBBABBBBBBBBBABBBABBBABBBBBBBBBABBBABBBABBBBBBBBBABBBABBBABBBHBBBBBHBHBLBHBBBLDGKNJBELALBBBBBBBBBLABBBBHBBBHBBBABBB",
"LALBHBHBLALABBBBLAHBLAHBBBHBBBLABBLAHBLAHBBBHBBBLABBLAHBLAHBBBHBBBLABBLAHBLAHBBBHBBBLABBLAHBLAHBBBHBBBLABBLABBABHBBBBBIADABBOEGKGJPBLALBLBABBBLAHBBBABBBABBBBBBBBB",
"LALBHBHBBBBBBBEBMAEBFCLBGCHBPAPAHBHBABBBBBBBBBLACBBBPABBABDABBEBLAFBBBLALAABLAABLALALAPAABABHBPALBHBFCFBPAGBBBFCABNAHBHBBBBBBKBKBKEBABGBCAABPAEBLAPABBLAHBABHBBBBB",
"BBPAHBHBLABBIALAHBHBLALACBPALALABBBBHBBBHBLALAPALADBABIANAGBPABBABABBBLBPAABLBFCHBHBHBEBLABBMABBLBHBFCIAHBBBEBLBLAEBHBLAHBHBNJNJKHABFCDALAMABBGBLABBLABBHBBBBBBBBB",
"LAHBBBBBHBABABABNHMKOJGJMKNJGIKIPAHBBBHBBBCANANHIKMKBKOJFIGJFJCDJDEKJJNJNJMJKIGFKCLABBBBABABLAPDBILJMJBJNILDOAOGOABBPABBLBDCKIBKGHHBBBBBGBLBPADABBLABBABBBLAHBLAHB",
"BBLBBBBBBBABFCDALAFDNHKIBKEIBBMALAHBBBBBLAABPALAIDGJGKFIGJOAFBKABBBBDEKIGKOJDEDAIABBBBPAACEJEKIKKEPAABHBLBDHBKJJHBPANAHBHBCIGJDJGBBBIENHGKBKMKJJJFFAHBHBBBBBHBHBBB",
"BBBBHBBBHBBBPALBBBAFGKOHGKKFPAMABBBBBBHBBBPALBMAMIMJMJGJIEEBBBABCBIAMFIKMKNJMAHBFCLAFCOCGKCKBKDCHBLAPALAFCLBMKDJLAIAFCLALFMJBKHDLAEJFELAACKDDICKFIMKEBLBHBPAHBBBHB",
"LAPABBBBBBABHBBBEBNHJJKILHGBHBBBBBBBBBHBBBHBNALALIBKALDIGCLAMAGBDBODGJKINJJIABPAABHBDFKIGJGKAHCBABBBHBLAHBPAJJIFBBABPAHBBKGJIKIDEJHBIALAHBABPABKFJBKHBHBBBBBBBHBBB",
"BBLBBBHBBBBBIABBLBLIMJBKPEABBBBBABLAHBLABBIALAABKIBKKICFLABBLANABBAGBKNJMJBFBBLABBPALIBKBKDJPBDAGCMABBABBBDADGJCBBBBLAGBNJLKGJDIOGBBABABBBFBIAGJOJBKGBBBBBBBHBLABB",
"LALBABBBLALAIABBOCGKOJGJLCGBBBPABBHBABBBBBLABBPCMKKIOJOALAFBDBHAEBFHBKGJEICCABBBBBPENJIKGKCCMAACMALBHBPAABABABIAHBBBLAJBKIGKKIPCLALAFCPAPACBLABKGKGJHBHBBBHBABBBBB",
"LAPAHBBBBBBBLBLAIGMKBKKILBABLAEBBBABHBLAHBLABBIGIKGJBKKIOJOJIKNJFJBKJJGJFGLALBBBLAGKKIFIBKACDAIAFCLAHBBBHBHBDBBBIABBLAAIBKGJCJBBGBACIALBBBBBECIKKIJJBBLBDBBBBBBBBB",
"BBHBABHBBBBBFCDAGJKIOJGKDBLAFBNAIAEBIAACLAHBBBOJGKKIOHMDIFKEKEMDMEBKIKGKECMAABBBLAKIMKIKKIBBHBHBBBBBABPAHBFCLAFCBBEBLBAKGJFIFDHBHBBBBBLABBLBAGKIGJPJBBLAHBHBHBLAHB",
"LALBBBBBHBBBBBPAKINJMHMFEBABBBHBLAHBBBEBABBBLAKIKIBKNDBBHBLABBLAOGKIFIIKBBBBLAHBHBBKKIKIBGBBHBLABBBBNALBBBLAPALALBDBPAGKBKNJPAABBBIAFCPAPAHEKIGJBHACLABBHBHBBBABBB",
"LABBHBBBHBBBLAEDGJIKGJGBHBGBABBBHBABCBGBABBBIDGKEHIKOAABIABBIAPAMKIKKIKHLAPAMAFCLANJKIKIJEBBBBABBBHBBBLABBCBLBMALBHBHDOJGKPGEBHBBBABLALABBOJOJNJPALBABHBBBBBHBBBBB",
"LALBHBHBLAHBLAPHGJIKKILAHBBBBBHBEBHBACGEPAPALENJGJIKLBEBBBBBABIANJGJBKMFLAABBBPALAGJKIBKJFABBBBBABBBBBBBLALABBLABBGBOEOJCKGEHAGBBBIADBMAGEKIDKKEDALABBBBABBBBBBBHB",
"BBLBBBHBBBBBECNJGJMKGKBBPALAHBLANAABKICJEBIBGJIKMKHJDAPALBBBBBIBOJGJBKACHBLALAABLAGJGKKICJHBLABBBBABEBCAPBNEHBHBBBEDFHGJBIBBPAHBLAACLAOCDKGKKJJAGBEBBBBBABLALAHBBB",
"LBEBABPAABDABHFJGKBKJFBBBBPALAABPAGJNHBDABCIOJBKNJHEEBABPAHBIACIMJLKOJBBBBBBPAABLADDFIMJFJEGNADBLAFCPABKJIFCLAHBABDIJJMHJFPAEBLAEBPAAKDKHHPADAGBACBBIALALAACBBBBBB",
"NALAABFCPAACGJFIKIGJOFLBABIAACIEDIKKAJACBBGKIKKIGJKDLBMAMAPAIDBKGKNJBKFCPACBLAGBLANANIGJEKLHLFPAACHCPIKHPDBBABIAFCCHBKIKOECDLAHBABHINJDICANAABDALALBMADBLBABABBBLA",
"GBLAGBIACDKIBKGKBKKIGJKINJGJKIIKFIGKECNAGIGKGJGJGJKKGJHBPADKBKGJGJOJGJNJOFGCLADBLBGBLAPADCJGGJMJPICFACBBPAABABPAEBBBLBIDJGBJKIOIPGNBEBHBHBMAFCHBABPALBEBABHBBBHBHB",
"OHOHOJIKGINFHBLAPABBLDJGHIIGKDDADABBMFCKNFLALBMAGBIEBKBKMKLKDDBBBBHBPAKHKIOJKIIJNJGJKINJPJKCDAHBKBHENJGJIJFIGIBKOJDKLICIAEBCIAJDCENGNJFJOJGJCKGKOLBMOLILKKOKNJIKIK",
"KIIKKIBKKIBKAEFCMAIAMFGKBKKIOJMKFICCPAKHBKEDABHBBBPEBKKIBKBKBKEDBBHBBBGJGKFHMKFJGJBKFDBBHBPBKFNJNJPJDCGDKGGKGKDKOJADBBABKENJGKGKOJKCFAECGKOLCMILOLHLBKKIBKBKKIBKKI",
"GJOJBKIKKIKIKFEBABNAJDKIBKNJBKGJFJEFACAGGJLEPABBPAHEBKKIKIBKNJLEFBLAPAGJMKKIBKGJGKMGACEBLACHGJMKKIOJKIPBFBKIGJOJBKICBBBBMFKIFIOJGJHJECBBDLKLOLOLKIOJKIBKBKKIBKOJBK",
"KIIKBKKIIKKIKIDCPACBPABKIKBKGKKIMJIKIHOALKKINCHBABBBBKBKBKBKIKFHLBMAABDFBKGJNJKIMJGBBBIAICGKGKBKBKFJNJMKDJCEOJGJBKJHPAHBKCGJLKGKFHGKAMMLCBPACFFIFJGJKIKIBKBKKIBKBK",
"GJBKKIKIBKKIBKCIABLAPAFJBKOJGKBKBKFJGJNJBKNJIIFCPAABNHIKKIMKKIGKOABBBBICKIMKGKNJFJBBHBNAOEOJKIFJKIIKGJFIFIIKBKGJIKOJIFDAOAHGDKGJOLKLHLKLAHLBBBFKMKEKBKIKBKBKKIBKBK",
"KIOJBKIKKIBKNJEHBBABPACIKIIKNJKIGJBKMJBKOJBKGJPACBBBLGGJKIGJGJBKOCHBABLBIKGJBKBKKIHBPAHBOEKIKIOJMJGKGJGKGKGJNJGJOJGJAIEBBBCEKICMJLILGLOJGJBBBBPAOHEHOJBKKIBKBKBKOJ",
"KIIKKIBKOJKIGJBKLABBBBOBGKGJOHIKBKBKBKBKKIGJKIOAHBPAMCFJBLGKGJOHOGDBHBBBOJBKEHBKGJLBLABBKEBKGKKIGKBKGKHKKIKIJJNKFHIKKIBBEBNAOLNLILHJKIGKGKGGLAFCKCNJNJGJMKGJBKKIKI",
"KIKIKIBKBKBKOJNJEEABGBBBKIIKNJBKBKBKKIKIBKBKNJBELAHBHAHBIAGBBBLACDEACBABPEIKGJIKBKHAPALAIAGKOJKICKKIKIBKKIBKGJEHMJIKILJBHBCABHMJKIGJGJKIFIIJLFPAIAICMKKIBKKIIKBKKI",
"KIIKIKBKKIBKBKKIPEPAFCHBOJBKBKMJKIBKIKBKBKKIMJPHLAPAACGIKILIJJNJFJCDEBABHEMJKIBKFIKAOCGALABKIKBKBKKIJJGKKIGKGKGJGJOLJLELPABBECOHIKEIDKBKKIBKKHLADABBOJKIBKBKBKKIIK",
"GJKIKIKIBKBKGKKINJBBPABBHHBKGKBKIKBKBKBKBKGJMJNJEBLABBHHBKKIBKJJBKPDLAABLAAHOJIKGJHEPAABEBLHGJBKIKGJFIBKMJOJOJKLJLOLILDJGBFCFAPJCLFHMHNJGJBKKIBBNAHBNJGJOJKIKIBKKI",
"KIBKIKBKKIKIKIBKNHBBEBHBDDGJMHGKBKIKKIIKBKMKGJIKPABBLAICGJMKIKMJOJEFBBHBBBPBGKOJGKDKLAHBNADDBKGJGKKIKIGJGJOLEBPLOLOHKIGKPAACBBECIEBKKIKKCGBKIKKAPAHBGJGJKIBKKIBKKI",
"KIIKBKIKBKOJMKOJBKPCBBLBGBLGDKKIBKBKBKKIKIGKBKBKICHABBNACIIKBKOJGJGJPCLBBBHBNJGJKIFJKDEADANALDGKIKGJFHJLAMJLLALLOJGJGKIKEBHBIAAJOCCGNKIKKIKINGLABBFCOHOKNJGJBKOJBK",
"KIBKKIBKBKBKLKOJIKHGLBHBPAADOJNJBKKIKIBKBKDKBKOJIGHBEBABODMKGJCKBKGJAHABBBLBEIPKMHBKMJEJPABBEBFFMJMKOLILHLJLBBMBFIBKNKGJLFLABBIGKKPBPEFHKKBIGDLAHBLAKIGJKIGKKIKIOJ",
"KIBKBKIKBKKIEKGKGJHEABACLAIAOGKIBKBKBKBKIKBLBKGJHFFABBFCKAPEDKBKNJJKPFFCLAHBDDGFKIFIGKKIALHCPAGCAAGLOLDJNJEDABLAGJOJMJBKMKGDGBPBKIBKKFLBDALAIALAMFFHGJIKKIBKKIIKBK",
"KIBKKIBKBKBKIKBLGKCKNJFJBKNJGIGJNJKIKIBKBKBKOJFICKKIGJNJMJCKGJIKKIOJGJIKOJKIALNJBKBKMKBKOKAMJLBAFLECBBIBLDHGNHKEMJMHFIKIGJPIMALAIFMJGJBLGJFHKINJMJOJGJGJGKGKBKBKIK",
"KIIKBKBKOJKICGKIKIBKBKFIGKGKBKIKBKBKBKKIKIBKGKKIKKDKKIBKNJMJOJGKFJHKNJKIKIGJMJFIKIOKKKFIJLOLCMKLGJJJFHFHBKNHPKBKFIMKKIGJMHMKLAIABDOJGJFJIKMKGKMJGJKIKICKBKFJKIIKKI",
"GJOJKIOJBKBKKIIKKIKIBKBKBKBKBKBKKIIKBKOJBKBKKIKIIKBKIKBKOJBKBKKIBKBKKIIKKIIKKIBKIKGKKIFIOLJLMJCKGJJJKIOJBKKIKIBKKIOJBKIKGJNJLBBBPABKBKNJGJKIBKBKOJKIOJBKOJKIBKKIKI",
"KIIKIKBKIKBKBKKIKIIKBKIKBKBKKIBKKIKIBKKIBKBKKIOJKIIKBKBKKIKIBKKIBKBKKIKIBKKIBKBKGJBKCGGKOJBKKIFJJJKIBKKIIKBKKIBKIKBKOJKIBKNJIEDBPAJIBKMKBKIKKIOJKIIKBKKIBKKIIKKIOJ",
"KIBKBKKIBKOJBKBKBKKIBKKIKIIKBKBKKIBKBKKIBKKIBKBKBKBKBKKIBKBKBKBKBKOJBKBKBKBKBKKIGKGJIKOJGKKKOJGKGKKIKIBKBKOJBKOJBKKIBKGJBKIKBHDBLAHGGJBKBKKIBKKIBKKIBKBKKIKIBKBKBK",
"KIIKKIBKBKBKBKBKKIKIBKBKBKKIIKBKIKBKKIBKBKIKKIBKBKBKKIBKKIBKOJBKIKBKIKKIBKBKIKBKEIGKKKBKFJGJEKFIGJKIOJBKKIBKOJBKIKBKKIGKBKKILIBBEBECMKBKGKBKKIBKKIBKBKBKBKBKKIBKKI",
"KIIKBKIKBKKIBKKIKIBKBKBKKIBKBKBKKIBKIKBKBKKIBKBKBKBKBKBKBKBKKIKIBKIKBKBKBKIKBKKIKIKIBKKIBKBKKIKIKIBKBKIKBKIKBKOJBKBKKIGKIKDKKGLAABGBKIIKKIIKKIKIBKKIBKKIKIBKBKKIBK",
"GJOJKIKIBKBKOJBKIKBKOJBKBKBKKIBKKIKIKIBKBKBKBKKIIKKIOJKIIKKIBKKIKIBKKIOJBKKIBKBKBKBKKIBKIKBKKIBKBKBKKIBKKIKIKIBKKIBKBKDKKFGBLALBBBBBMHBKKIKIBKBKKIBKBKIKKIOJKIIKBK",
"KIIKBKBKOJKIKIBKBKIKKIOJKIIKBKBKBKBKBKBKBKBKKIOJBKOJBKBKKIBKBKBKKIKIBKBKBKKIKIOJBKKIBKKIBKBKKIOJKIBKBKBKBKBKBKKIKIKIBKNJGKMKNJNHDKNHJJMJOJBKKIKIIKKIOJKIIKKIBKKIKI",
"GJOJKIKIBKBKOJBKIKBKOJBKBKBKBKIKKIKIKIBKBKKIBKBKIKBKIKBKIKKIBKKIKIKIBKIKBKBKBKBKKIKIBKKIKIBKKIBKKIBKBKBKBKBKKIBKKIBKKIBKIKBKGKGKBKKIBKBKOKBKKIKIBKKIBKIKKIOJKIBKBK",
"KIBKKIBKBKBKBKBKKIKIBKKIBKKIBKKIBKKIBKKIBKOJBKOJBKKIKIBKKIBKOJBKIKBKIKKIBKKIKIBKIKBKKIBKBKOJBKKIBKBKKIIKKIIKKIIKBKKIBKNJGJGJKIBKFIJJOJKIKKKIBKBKOJBKKIBKBKBKOJBKIK",
"BKGKGKGKBKBKBKGKGKGKBKBKBKGKGKGKBKBKOJGKMKGKIKBKKIGKGKGKBKBKBKGJGKMKBKBKBKMKGKGKKIBKIKGKMKGKBKBKIKGKMKGKIKBKBKGKGKGKBKBKBKBKGKKIBKBKBKBKBKBKGKMKGKIKBKBKGJMKGKIKBK",
"GJKIBKGKBKBKIKBKMKBKIKBKBKGKBKMKBKIKBKBKGKBKBKBKIKGKIKGKIKBKBKBKGKBKBKIKBKGKBKGKBKBKBKBKGKIKBKIKBKGKBKGKBKBKBKBKGKIKBKIKBKMKBKGKBKBKIKGKIKBKIKGKBKBKBKIKGKBKGKBKBK"};
