/* XPM */
static char *logo_LAL[] = {
/* width height ncolors chars_per_pixel */
"77 51 103 2",
/* colors */
"AA c #FFFFFFFFFFFF",
"BA c #FCFCF5F5FCFC",
"CA c #FCFCFBFBFCFC",
"DA c #D8D8D7D7D8D8",
"EA c #D5D5C9C9D6D6",
"FA c #CCCCB0B0D0D0",
"GA c #80803D3D8A8A",
"HA c #8A8A73738E8E",
"IA c #C5C5B9B9C7C7",
"JA c #77773B3B8383",
"KA c #6C6C3A3A7676",
"LA c #828251518C8C",
"MA c #D3D3B0B0DADA",
"NA c #5C5C35356565",
"OA c #A6A69494AAAA",
"PA c #79794B4B8585",
"AB c #6F6F46467A7A",
"BB c #9B9B7979A4A4",
"CB c #EDEDD9D9F3F3",
"DB c #F5F5ECECF8F8",
"EB c #B2B2ACACB5B5",
"FB c #91918C8C9595",
"GB c #E3E3DCDCEAEA",
"HB c #A5A59A9ACACA",
"IB c #D2D2CCCCE5E5",
"JB c #C2C2BCBCDBDB",
"KB c #72726767B0B0",
"LB c #B1B1ABABD3D3",
"MB c #B8B8B6B6C3C3",
"NB c #525245459F9F",
"OB c #ECECEBEBF2F2",
"PB c #CDCDCDCDCECE",
"AC c #54545A5A6666",
"BC c #8F8F9696A4A4",
"CC c #727279798585",
"DC c #D3D3DBDBE3E3",
"EC c #6C6C9999ABAB",
"FC c #B6B6D7D7E5E5",
"GC c #D5D5EDEDF7F7",
"HC c #50509696B1B1",
"IC c #8F8FBABACACA",
"JC c #565669697070",
"KC c #7474A8A8B7B7",
"LC c #9999D7D7E8E8",
"MC c #8585B8B8C6C6",
"NC c #A3A3D9D9E7E7",
"OC c #8989AFAFB9B9",
"PC c #56569999A7A7",
"AD c #DADAF5F5FBFB",
"BD c #C8C8D6D6D9D9",
"CD c #5252A2A2B0B0",
"DD c #565691919C9C",
"ED c #CBCBEEEEF4F4",
"FD c #F5F5FBFBFCFC",
"GD c #8E8ECDCDD2D2",
"HD c #C8C8E6E6E8E8",
"ID c #E8E8F9F9FAFA",
"JD c #D8D8E6E6E7E7",
"KD c #9797C6C6C6C6",
"LD c #ADADD2D2CFCF",
"MD c #B1B1E1E1D8D8",
"ND c #D3D3E2E2DDDD",
"OD c #F5F5F8F8F7F7",
"PD c #EBEBF4F4ECEC",
"AE c #F3F3F3F3F2F2",
"BE c #C8C8C8C8C7C7",
"CE c #C4C4C4C4C3C3",
"DE c #FCFCF9F9EDED",
"EE c #AAAAA9A9A5A5",
"FE c #C5C5C2C2B7B7",
"GE c #D7D7D4D4CACA",
"HE c #FCFCFAFAF4F4",
"IE c #E9E9E8E8E5E5",
"JE c #E8E8E4E4DBDB",
"KE c #C3C3BDBDB2B2",
"LE c #82827C7C7272",
"ME c #FBFBF5F5ECEC",
"NE c #E2E2DDDDD6D6",
"OE c #F5F5EDEDE6E6",
"PE c #FBFBF6F6F3F3",
"AF c #9A9A98989797",
"BF c #B9B9B7B7B7B7",
"CF c #E4E4E3E3E3E3",
"DF c #FBFBFBFBFBFB",
"EF c #F5F5F5F5F5F5",
"FF c #EBEBEBEBEBEB",
"GF c #DDDDDDDDDDDD",
"HF c #DADADADADADA",
"IF c #D3D3D3D3D3D3",
"JF c #CECECECECECE",
"KF c #CCCCCCCCCCCC",
"LF c #CACACACACACA",
"MF c #BBBBBBBBBBBB",
"NF c #B3B3B3B3B3B3",
"OF c #ABABABABABAB",
"PF c #A3A3A3A3A3A3",
"AG c #9D9D9D9D9D9D",
"BG c #999999999999",
"CG c #949494949494",
"DG c #8D8D8D8D8D8D",
"EG c #8A8A8A8A8A8A",
"FG c #7C7C7C7C7C7C",
"GG c #777777777777",
/* pixels */
"AAAAAAAAAAAAAAAAAAAAAAAAAAAAAAAAAAAAAAAAAAAAAAAAAAAAAAAAAAAAAAAAAAAAAAAAAAAAAAAAAAAAAAAAAAAAAAAAAAAAAAAAAAAAAAAAAAAAAAAAAAAAAAAAAAAAAAAAAAAAAAAAAAAAAAAAAA",
"AAAAAAAAAAAAAAAAAAAAAAAAAAAAAAAAAAAAAAAAAAAAAAAAAAAAAAAAAAAAAAAAAAAAAAAAAAAAAAAAAAAAAAAAAAAAAAAAAAAAAAAAAAAAAAAAAAAAAAAAAAAAAAAAAAAAAAAAAAAAAAAAAAAAAAAAAA",
"AAAAAAAAAAAAAAAAAAAAAAAAAAAAAAAAAAAAAAAAAAAAAAAAAAAAAAAAAAAAAAAAAAAAAAAAAAAAAAAAAAAAAAAAAAAAAAAAAAAAAAAAAAAAAAAAAAAAAAAAAAAAAAAAAAAAAAAAAAAAAAAAAAAAAAAAAA",
"AAAAAAAAAAAAAAAAAAAAAAAAAAAAAAAAAAAAAAAAAAAAAAAAAAAAAAAAAAAAAAAAAAAAAAAAAAAAAAAAAAAAAAAAAAAAAAAAAAAAAAAAAAAAAAAAAAAAAAAAAAAAAAAAAAAAAAAAAAAAAAAAAAAAAAAAAA",
"AAAAAAAAAAAAAAAAAAAAAAAAAAAAAAAAAAAAAAAAAAAAAAAAAAAAAAAAAAAAAAAAAAAAAAAAAAAAAAAAAAAAAAAAAAAAAAAAAAAAAAAAAAAAAAAAAAAAAAAAAAAAAAAAAAAAAAAAAAAAAAAAAAAAAAAAAA",
"AAAAAAAAAACACACACACACAHEDFAAAAAACACAAAAADFHEDFDFFDAACAAADBAADFCACAAAFDAAFDAAAACAPEHEHECAAAFDFDBACAAAAAAACAAAAAAAAAAAAAAAAACACACADFDFDFHEAABABAAAAACABACAAA",
"AAAAAAAAAACACACACACACACAAACACAAAAAAAAADFCAHEDEDFAACABABAOBCACAHEODAAAAAAFDAAAACAAACAHEDFFDFDIDCACACAAAAACAAAAAAAAAAACAAAPDHEAADFCACAAEAACADBCBCAFDCACACAAA",
"AAAAAACACACAAAAAAAAACADFCAAAAAAAAAAADFCAMECAAACABADBMAHABBDBAAAAFDAAAAAAAAAAAABAODFDFDFDHDKDBCOBBAAACAAAAAAAAAAAAAAAAAEFAAAABABAAAAACADBFAHAABAEAAAABAAAAA",
"AAAAAACACAAAAAAAAAAAAACADFCAAADFAAAAAAAAAAAABADBFALAKAKAHABAAAAAFDAAAADFAAAAFDCAFDIDHDOCECPCDDIDCAAACAAAAAAAAAAAAAAAAAAAAEBACACABADBLBLEKAKAABAAAAAAAAAAAA",
"AAAAAACACAAAAACAAACAAAAACACACACAFDAACACABABAMALAKAGAKAJAHABAAAODFDFDAAAAAAFDFDFDEDMCPCPCDDPCDDGCFDAACACAAAAAAAAAAAAAAABACACABADBFALAKAJAGAKAABBAAACACACAAA",
"AAAAAACACAAAAAAACAAAAAAAHECAAADFAAAACABAIBHANAKALAGAGAKABBBACAAAODDFODCAFDFDADGDECDDCDPCPCCDDDIDFDFDDFCAAAAAAAAAFDAAAACABABAMAHAKAKAKAKAJAJAABBABADFCACAAA",
"AAAAAACACAAACAAACAAAAAAADFAAAABACACACBBBABNAABGAJAGAKAKAHABAAEPDCFFFJDOBADFCKCDDPCCDCDCDCDCDPCHDIDPDDFAAAAAAAAAAAAAACABACBOAKAKAJAJAJAGAJAKALADBDFDEHECAAA",
"AAAAAACACAAAAAAAAAAAAAAADFDFAACABAMAPAABKAPAJAKAJAJAKAABHACAJDCFJFBDDCHDICDDPCECCDHCCDHCCDHCPCFCJDJDPDCAAAAAAAFDAACABAFAHAKAKAKAKAGAJAKAKAABHADBPDPDCAHEAA",
"AAAAAACACACADFAAAADFAAFDDFAABADBEBKAABPAJAKAJAPAKAPABBIBFFCFIFKFMDBDKDECECPCPCHCCDCDHCCDHCCDPCLDLFDAIEPDAAFDAABABABAOAABKAKAKAKAJAABABABOAIBCBGBJEFFMEAAAA",
"AAAAAAAAHEDFAACAAADFAAAAAACACBBBNAPAJAJAJAJAABABBBIBDBGBGBJFJFNDFCICECHCHCPCCDPCHCHCCDCDHCCDPCMBLDEAIEDFCADFAACACBBBPAKAGAGAGALAKANAOAEAGBGBMAGEHFFFCAAAAA",
"AAAAAAAADFCAAAHECAAADFBACAIBHAKAKAJAKAJAPAKAHAFADBDBGFDAKFPBJDBDICECPCHCCDCDPCDDKCCDCDHCCDPCPCMBIAJFIEODODAACACBLAKAKAGAGAJAABNACCFAGBHFEAEAIFHFFFHEBAAAAA",
"AAAAAADFAAAACADFCADFCACACBABNAPAKAJAPAKAABOABADBDCEABEIFPBJDJDICPCHCCDCDCDPCECKCLCMCHCCDHCPCDDMBLDKFJEDFDFCAGBPAPAKAGAGAKAJAABOACBGBGFLFKFIFCFPDEFDFCAAAAA",
"AAAAAAAACAHEAAAABACABAGBABABABKAJAKAKAPAGBBAGBDABDPBDABDOBGCICDDPCCDCDCDDDECICFCHDMCPCPCPCCDDDICKEKFIEEFAACBPAABKAGAJAKAJALEMADBGBEALDIFGFIEPDEFODAAAAAAAA",
"AAAAAAAACAAAAAODAACAGBPAABKAPAJAKAPAHADBCBGBDAPBKFHFJDODIDKDDDPCCDHCHCDDKCLDBDDCFCOCPCPCCDCDECNFMBJFCFBACBHAABKAJAJAJAKALAIBCBDALFLFGFHFIEAEBAAAAAAAAAAAAA",
"AAAAAACAAAAADFEFAACBHANAPALAKAJAPABBDBDBGBEAJFHFDACFAAIDLDECDDCDCDDDCDECLDJDBDPBBDOCPCCDPCPCECKDBEJFGBDBHAKAKALAJAKAPABBCBOEIFEADAGFCBBACAAAAAAAAAFDDFFDAA",
"AAAAAAAACABAAACABAOANAJAJAJAJAKAOACBDBGBEAIFBDDAPDAAFDHDKCHCHCHCHCCDECMDBDKFKFGFGCICPCPCCDCDPCLDIABDGBOAJAKAJAJAJAJABBCBGBIFBEKFJDOBBABAAAAADFDFAAAAFDAAAA",
"AAAAAAAAAACABABAFAKAJAKAJAJAKAOADBDBGBEAKFIFCFPDFDFDOBKCHCHCCDCDDDKCBDHDPBIFNEOBIDKDCDCDHCCDECICBDGBLBJAGAJAJAPAKABBCBGBDAJFIFCFAECAFDDFCADFDFCADFAAAAAAAA",
"AAAAAADFAAAABACBLAKAJAJAJAKABBDBBANEGELFIFIEAEODFDFDGDECHCHCHCPCKCLDBDPBPBHFIEBAFDGDPCHCHCHCDDLDEALBLAJAKAGAJANABBCBGBEAGEIFGFPDEFFDAAODDFDFDFCAHEAAAACAAA",
"AAAAAAODAACABAOAKAABKAPAKAHACBBAGFGEFEIFCFAEDFFDFDEDECDDPCHCPCPCKDJDLFBDHFIEPEBAAAKDPCCDCDPCDDFCMAFBABKAJAPAABLAEABAEAKFDACFEFAAAAAAAAAAAACADFCACAAACAAAAA",
"AAAAAADFAABACBABKAABKAKAPAIBBAGBEAPBIFGBBABACAAAIDICDDPCPCPCCDKDFCHDBDDCADDBAAAAFDLDPCHCCDHCDDBDLBLAKAKALANAABMADBIBEAEACBDBCACACACACABABAAACAHECAAAEFAAAA",
"AAAAAAAACABAOANALAJAJAJABBMAMAFAFAOAFAMAIBMAIBIBLDKCCDCDCDHCCDGDGDICICNCFCFCFDAAFDKDPCPCCDPCPCLBOAKAKAPAJAKALAHBHBBBBBOAOAEBFAHBFAHBFAMBMACAAAAACAAACAAAAA",
"AAAAAACACADBABJAJAJAJAKAJAKAKANANAKAKAKAKAKAPAACKBDDPCCDCDCDPCPCECECDDPCPCECIDAAFDKDPCPCCDCDECICLAKAGAJAKAKALAJAKAKAKAJAKAKAKAKANAKAKAKAFBBACAAACACACACAAA",
"AAAAAACABAFAABPAJAPAJAPAKAABPAABKAPAJAJAABPAPANBECECPCCDCDCDCDPCDDECPCPCDDECIDFDAAKDECPCPCPCPCBCABKAJAKALAKAKAKAABABPAABPAABABKAKAKAABNAOABAAAAAODDFHECAAA",
"AAAAAACACABBCCKAPAPAPAPAABABABABPAKAPAPAPAABPACCBCECPCPCDDDDPCECECPCKCKCECECIDFDFDLDKCKCKCECECFBJCLALALELALALAHAPAPAPAPAPAPALAHALALALAHAOABABADFAACAHEAAAA",
"AAAAAAAABADBBADBBABADBDBDBFFEAEAIBCBIBCBOBCBOBCBGCADADADEDMDHDHDGCADIDIDADFDFDOBOBFDOBIDGCGCBDDCMAGBCBCBGBIECBIBEAEAGBGBDBOBBACBBABABABACBDBODEFDFCAAAAAAA",
"AAAAAACAAAAABACAAAAAAAAAOBDBOBFFCBOBDBOBDBDBIDDBDBOBFFPDPDIEPDAEODBAAAAAFDFDAAAEAAGFFDOBDBOBOBGBOEGBDBIECADBOEIEOBGBFFDBDBGBDBCADBBACBDBDBBACAHECACACAAAAA",
"AAAAAAAAAAOBGFAAAACAODAAIFDBBADBAAIBMBMBDBAADBOBDCBFIAHFPEAAPEIAEAEABABACAAAIEGBDBAAGBFAEBIAHFPEPEGBBFBEIFEFAABABEFFAACAMBHFMFDBBAAEEAIAJFFFDFDFAAAAAAAAAA",
"AAAAAAAABAEBHFFDODAAAADAFBLFBABABABGDBEBLFOBAAPFKFDBBAHADBBABAFBCBBBDBCAAABAFBEBBABACABAHABABABAEBCEDBCACGGBBAAAFBBABAOBFBFFHABAAAAAHAFFAAAACAHEFDAAAAAAAA",
"AAAAAAAACAFBDBCABACAGBOAOAOABABABAHAJBHABAAAOBHABACACAHABABACBHAFBCBBAAAOBOFEBHADBCABACBEBBADBPEHABACABAFBGBCADBFBCAAACBHAFBGBCADBGBFBEAFFAAAACAAAAACAAAAA",
"AAAAAABABAHAOBBABABAEBBADBFBDBBACBOACBFBDBAADBEGDBDBEBIABABAEBIBOAMBBACAMBGBBAFBDBBABAEBEADBAACALEDBBAIAMBDBBAEAEBBACAOAGBFBMABABAOAFAIEBAAADFDFDFAAAAAAAA",
"AAAAAAFDAAJFCBDBBABAOEDBCAJFAAAADBEAHFCAAABAAAFFCFEABACAAADBCFAAAAHFCACACBBACADBCBAACAGBDBAABACABAGBEADBCAAAAAFFBAAAAAPEDBCAFFCACAOBGBGBBACAAACACAAAAAAAAA",
"AAAAAAAACAAADBBABABABACABAAAAAFDBAAABACAEFCAAAAADBAAAACAOBAABAAAOBDBBACAIAEADBBACACABAIAEABACABACABAAAFDAACAFDCAAAEFCABACACABACABACABADBCACAAAAADFCAAAAAAA",
"AAAAAABACAEAEBIAFAEBBAFBEAGBCACACGBACAGBBECAGBFBCACAEBMBEAIADCEBEAIAEAFBFAGBIAIABACAEGMAIBIAFAEBIABAOBHABAEABFOAIAIAEBFABAHACACAIACBOAEAOAGBAAAAHECADFAAAA",
"AAAAAAAABAAGIBBACBBBMABBFABABABAFBBACAIFGBOBIAHABAMBIABACADBFBBABACABAHAEACBEBCBCAGBHAEADBBBFAEBEABAEBOACBBAOAGBBABBFACBMAIACABAEBBAHAFAOABABAHEAAODAACAAA",
"AAAAAABABAAFCABAIAIAEBCBBABABACBOACAAABACAEBFAEBFAOACBCADBBACCBABACAEAEBDBBAFBBACAIAFABADBOAEBEBBAEBMAEBOAAAHABABAEGCADBIAIACADBFAGBOABBEACACAAADFDFCAAAAA",
"AAAAAAAABAFBEAIAIABAOAIAEABABABEEBBEOBCAKFDBBADBMBCBOFIAPBDBIAIAEAFAEAKEFACBOAKEEAIABFFAOBKEDBEBFAGBAADBEBDBMFAAOBOAIADBEABFIAMBDBEAGBDBEBBAAAEFCADFCAAAAA",
"AAAAAABAAACABAAAAAAABACACABACABACADBCAAABACABABABABACACACACAAABADBLFDBDBCAAABACABABACABABABABABACABACACABACAAABACACABABACACAODAAAACADBBACABAAACADFAAEFAAAA",
"AAAAAAAABAGBGFCAAABAAABAAAAABECAAACAAAAACALFBACABAEAAABAAAAABADCEBIADBBABACACABACAGBGBCABACABABABACAMBBACABAAABAAAEBLFIACAAAAAAAFFCAIAEAIADFAACACADFAAAAAA",
"AAAAAAAACAPFCFBAEFAADFAACAFFFBBAAAAADBAAAAFBHADBEAFFAACAEFAABAIAEADBCABAODAABACAOBOAOACAAAAAEFAAAADAEBCACAAAAAAAGBOADBFBCACAEFBAAABAEGCFAAAAAECAAAAADFAAAA",
"AAAAAAAAAADGBAAAAADFDFDFAAFFPFAAAAAAAACAFFLFEAFBEBBACACACADFAACCIBGBBAAAAABAAADBOAIAGGAAEFDFAAAABAEBDABABAAABAAAEECGFBDBBAAAAAEFAAGBFBHFFFAACADFCAAAAAAAAA",
"AAAAAACABAFGKFFFDFAAAACADFNFKFAACAAAAAAAMBCBCAEAFBAACACACAAABACCEACBCAAAAAAABAOFBABACGCFDFCADFAAAAHABACACACAAAAAEGBAAFEACAAAAACABAKEEBEADBAACADFCAAAAAAAAA",
"AAAAAAAABAAEAEDBAAAAAACAAAEFAAAAAACACAAABACACABABACAAACACAAACADBDBCABAAAAAAACABABACABACAAACAAAAAAABACACACAAAAACABABABABABACAAACACAOBCBPEAADFDFCACAAAAAAAAA",
"AAAAAACACACACAAAAAAAAACAAABACACAAACACAAABACACABABACAAAAAAAAAAACABACACACAAACACABABACABACAAAAAAACACABACACABAAAAAAABABABABACAAAAACAAABAAABAAAAAAACADFAAAAAAAA",
"AAAAAAAAAAAAAAAAAAAAAAAAAAAAAAAAAAAAAAAAAAAAAAAAAAAAAAAAAAAAAAAAAAAAAAAAAAAAAAAAAAAAAAAAAAAAAAAAAAAAAAAAAAAAAAAAAAAAAAAAAAAAAAAAAAAAAAAAAAAAAAAAAAAAAAAAAA",
"AAAAAAAAAAAAAAAAAAAAAAAAAAAAAAAAAAAAAAAAAAAAAAAAAAAAAAAAAAAAAAAAAAAAAAAAAAAAAAAAAAAAAAAAAAAAAAAAAAAAAAAAAAAAAAAAAAAAAAAAAAAAAAAAAAAAAAAAAAAAAAAAAAAAAAAAAA",
"AAAAAAAAAAAAAAAAAAAAAAAAAAAAAAAAAAAAAAAAAAAAAAAAAAAAAAAAAAAAAAAAAAAAAAAAAAAAAAAAAAAAAAAAAAAAAAAAAAAAAAAAAAAAAAAAAAAAAAAAAAAAAAAAAAAAAAAAAAAAAAAAAAAAAAAAAA"};
